<svg xmlns="http://www.w3.org/2000/svg" width="256" height="256"><path fill-opacity=".016" d="M0 128.004v128.004l128.25-.254 128.25-.254.254-127.75L257.008 0H0v128.004m.485.496c0 70.4.119 99.053.265 63.672.146-35.38.146-92.98 0-128C.604 29.153.485 58.1.485 128.5" fill="#1976D2" fill-rule="evenodd"/><path fill-opacity=".211" d="M114 .623C57.945 7.759 14.302 47.795 2.401 103c-2.562 11.885-2.562 38.115 0 50 5.463 25.344 17.486 47.569 35.292 65.241C56.205 236.615 77.37 248.074 103 253.599c11.885 2.562 38.115 2.562 50 0 50.453-10.876 88.971-48.83 100.062-98.599 1.042-4.675 1.904-10.161 1.916-12.191.012-2.03.472-3.969 1.022-4.309.569-.351 1-5.363 1-11.618 0-7.079-.356-10.78-1-10.382-.599.37-1.009-.911-1.022-3.191-.012-2.095-.874-7.634-1.916-12.309C242.118 51.894 204.396 14.155 155 2.894 146.652.991 121.887-.381 114 .623M.378 128c0 6.325.163 8.912.361 5.75.198-3.163.198-8.338 0-11.5-.198-3.163-.361-.575-.361 5.75" fill="#1976D2" fill-rule="evenodd"/><path fill-opacity=".389" d="M160.626 16.533c-.344.897-.626 2.719-.626 4.049 0 1.481-.58 2.418-1.497 2.418-.824 0-2.137 1.462-2.919 3.25-.781 1.788-1.458 2.724-1.502 2.082-.145-2.074-6.795-5.39-12.768-6.367-7.079-1.157-20.335.291-27.467 3.001-6.132 2.33-11.411 6.272-13.928 10.4-2.962 4.857-2.5 6.156 1.345 3.78 3.93-2.429 18.031-8.166 19.903-8.097.733.027-1.38 1.094-4.696 2.371-9.693 3.734-23.035 11.263-25.197 14.219-1.501 2.054-1.682 5.991-.313 6.837.528.326 2.846-.772 5.15-2.441 2.998-2.172 5.323-3.035 8.177-3.035 3.244 0 4.776-.726 8.206-3.888 4.235-3.903 9.298-7.203 8.114-5.287-.348.563.161 1.23 1.13 1.483.969.253.247.512-1.606.576-2.508.086-4.388 1.137-7.367 4.116-3.398 3.398-4.633 4-8.205 4-3.114 0-5.222.77-8.132 2.972-3.186 2.411-4.925 2.978-9.209 3-5.6.03-7.188 1.376-5.633 4.778.44.962.831 2.276.87 2.92.039.643 1.304 2.14 2.813 3.327 2.708 2.13 2.966 3.851 1.229 8.212-1.091 2.741 1.385 8.555 4.773 11.206l3.127 2.447-1.698 7.319c-.934 4.026-1.771 9.72-1.861 12.655l-.162 5.336-8.339 7.022c-4.586 3.862-8.338 7.423-8.338 7.914 0 .49 1.949.892 4.331.892 6.75 0 24.39 3.525 32.669 6.529 18.805 6.822 31.235 15.492 61.577 42.948 17.168 15.534 36.501 31.779 37.104 31.176 1.322-1.323-2.299-11.418-6.164-17.181-4.018-5.992-4.256-6.762-4.744-15.315-.414-7.267-1.105-10.268-3.578-15.554-5.478-11.706-17.357-21.603-25.93-21.603-2.424 0-5.777-1.637-12.209-5.962-4.876-3.279-11.497-7.018-14.711-8.308l-5.845-2.346-.296-7.317c-.256-6.316-.081-7.234 1.276-6.713.865.332 5.059.894 9.32 1.25 9.079.757 10.834-.309 9.908-6.016-.45-2.774-.199-3.488 1.37-3.898 1.102-.288 1.922-1.371 1.922-2.537 0-1.119.492-2.339 1.094-2.711.602-.372.889-1.749.639-3.059-.407-2.128-.096-2.383 2.906-2.383 3.1 0 3.361-.243 3.361-3.135 0-1.724-.526-5.99-1.169-9.48-.811-4.401-.857-7.042-.149-8.616.727-1.616.654-3.276-.255-5.769-1.929-5.295-1.731-11.344.462-14.132 1.374-1.747 1.914-4.142 1.979-8.783.063-4.452.594-6.938 1.756-8.222 2.401-2.653.806-10.23-2.246-10.666-1.403-.2-2.428-1.38-3.034-3.493-1.003-3.496-3.728-4.751-4.718-2.171M127.16 29.184c-7.023 1.569-4.258 1.818 3.866.349 4.222-.764 5.951-1.345 3.974-1.336-1.925.01-5.453.453-7.84.987m23.423 5.299c-2.154.768-5.079 2.626-6.5 4.128l-2.583 2.733 3.295-2.646c1.813-1.455 5.075-3.125 7.25-3.71 2.175-.586 3.955-1.273 3.955-1.527 0-.712-1.166-.492-5.417 1.022m-21.833 1.179c.688.278 1.813.278 2.5 0 .688-.277.125-.504-1.25-.504s-1.937.227-1.25.504m-5.309 1.893c-1.83 1.467-1.798 1.487.559.365 3.061-1.458 3.628-1.92 2.358-1.92-.537 0-1.849.7-2.917 1.555M126 43.5c1.375.786 2.95 1.429 3.5 1.429.55 0-.125-.643-1.5-1.429s-2.95-1.429-3.5-1.429c-.55 0 .125.643 1.5 1.429m24.199 19.486c-1.815.43-3.615 1.131-4 1.557-.384.427.125.479 1.133.116 1.007-.362 4.382-.691 7.5-.729 4.091-.051 5.111-.31 3.668-.93-2.412-1.037-3.97-1.039-8.301-.014M79.5 143.75c13.606 5.552 28.201 15.073 39.383 25.69 7.308 6.939 18.049 19.881 21.772 26.234 1.394 2.379 2.76 4.326 3.035 4.326.957 0-5.065-9.549-10.754-17.053-7.312-9.645-18.906-20.469-29.413-27.46-8.704-5.792-22.983-12.907-28.023-13.965-1.65-.346.15.657 4 2.228M75 149c.825.533 1.95.969 2.5.969s.325-.436-.5-.969c-.825-.533-1.95-.969-2.5-.969s-.325.436.5.969m42 6.259c0 .207 5.492 4.621 12.204 9.809 11.608 8.971 33.37 29.422 39.301 36.932 2.336 2.959 2.486 3.036.967.5-7.078-11.823-24.121-28.686-39.501-39.085-11.601-7.843-12.971-8.704-12.971-8.156" fill="#1976D2" fill-rule="evenodd"/><path fill-opacity=".562" d="M166.441 31.433c-1.398 1.031-1.638 1.74-.858 2.532 1.384 1.407 4.181.344 5.48-2.083.817-1.526.659-1.882-.837-1.882-1.014 0-2.717.645-3.785 1.433m-12.628 4.25c.721.289 1.584.253 1.916-.079.332-.332-.258-.568-1.312-.525-1.165.048-1.402.285-.604.604m12.046 5.486c-2.332 1.818-3.06 1.92-6.234.872-4.856-1.602-6.695-.814-10.418 4.467-2.927 4.153-3.495 4.492-7.531 4.492-3.178 0-4.885.576-6.271 2.115-2.707 3.005-6.114 4.111-8.586 2.788-1.618-.866-1.957-.813-1.608.25.85 2.585 5.828 2.184 8.853-.714 2.445-2.343 3.412-2.638 7.038-2.152 2.929.393 5.723-.035 9.216-1.412 6.781-2.673 9.774-2.192 11.817 1.899l1.636 3.275.682-2.775c.375-1.526 1.421-3.899 2.323-5.274.902-1.375 1.659-4.187 1.682-6.249l.042-3.695c0 .03-1.188.981-2.641 2.113m-13.204 2.66c-2.338 2.583-2.186 2.727 2.842 2.697 5.031-.029 5.537-.688 2.28-2.969-2.808-1.967-3.11-1.951-5.122.272M104.24 57.75c-2.82 1.404-3.932 1.451-8.225.35-4.61-1.181-5.183-1.116-8.025.907-1.684 1.199-3.72 1.927-4.525 1.618-.806-.309-1.465-.126-1.465.406 0 .533.498.969 1.107.969s.848.674.532 1.498c-.351.916.384 2.126 1.893 3.115 1.357.889 2.468 2.056 2.468 2.592s.885 1.722 1.967 2.635C91.954 73.517 96.475 83 95.287 83c-.353 0-1.812-1.402-3.243-3.116-1.499-1.796-3.314-2.961-4.284-2.75-1.555.338-1.541.68.187 4.519 1.028 2.285 2.746 4.432 3.818 4.772 1.072.341 2.426 1.622 3.009 2.847 1.023 2.149 1.086 2.114 1.762-.992.505-2.316 2.225-4.37 6.132-7.319 2.987-2.255 6.165-5.64 7.062-7.522 1.538-3.224 1.737-3.326 3.451-1.775 2.103 1.903 2.381.659.427-1.914-1.714-2.257-3.322-2.228-4.052.074-.943 2.972-5.782 6.916-9.824 8.007-3.717 1.004-3.795.966-5.716-2.799-1.071-2.099-3.844-5.44-6.162-7.425C84.032 64.335 83.86 64 86.006 64c1.301 0 3.405-.977 4.676-2.171 1.858-1.745 3.359-2.129 7.649-1.956 4.098.166 5.898-.251 7.753-1.795 2.897-2.412 2.49-2.485-1.844-.328m11.367 1.771c-1.592.83-4.773 3.527-7.07 5.994-3.463 3.719-4.795 4.485-7.798 4.485-1.991 0-3.899-.45-4.239-1-.34-.55-1.154-.986-1.809-.968-.655.017.072 1.142 1.615 2.5 4.772 4.198 7.811 3.386 15.084-4.032 3.505-3.575 7.131-6.5 8.057-6.5 2.291 0 5.523 1.75 8.701 4.712 2.525 2.353 2.765 2.391 5.144.832 1.561-1.022 3.433-1.4 4.994-1.008 2.786.699 7.21-1.216 10.045-4.349 1.809-1.999 1.785-2.013-2.503-1.534-2.38.266-6.29 1.184-8.689 2.04-5.854 2.09-8.491 1.962-11.707-.568-3.186-2.506-5.862-2.671-9.825-.604m36.548 8.693c-4.499 2.164-5.953 3.299-5 3.903.74.469 2.11.859 3.044.868.935.008 2.889 1.575 4.343 3.481l2.644 3.467 2.64-3.217c1.452-1.769 3.205-3.573 3.895-4.009.69-.436 1.718-1.658 2.284-2.715.863-1.615.552-2.169-1.939-3.458-3.867-1.999-4.422-1.921-11.911 1.68m-32.601-.678c-1.253.947-1.602 1.816-.98 2.438.623.623 2.028.1 3.947-1.468 2.581-2.109 2.712-2.435.979-2.438-1.1-.003-2.876.658-3.946 1.468M115 74.392c0 1.409 3.91 8.289 5.427 9.547 1.258 1.045 1.873 1.057 3.073.061 2.215-1.838 1.836-2.828-1.218-3.184-1.768-.206-3.514-1.502-5-3.714-1.255-1.869-2.282-3.088-2.282-2.71m38.071 14.179c-1.152 2.606-1.87 4.963-1.595 5.238.275.275 1.443-1.632 2.595-4.238 1.153-2.605 1.871-4.962 1.596-5.237-.275-.275-1.443 1.632-2.596 4.237m4.929.301c0 1.102 7.763 2.393 9.167 1.525 1.706-1.054-1.276-2.365-5.417-2.382-2.062-.008-3.75.377-3.75.857M156 95c0 .55 1.35 1 3 1s3-.45 3-1-1.35-1-3-1-3 .45-3 1m-31.451 3.794c.847 2.038 2.644 5.384 3.995 7.435 2.831 4.297 3.179 9.472.93 13.821-1.471 2.844-2.445 3.395-5.312 3.005-.976-.134-1.122.443-.539 2.131.439 1.273.725 5.607.636 9.631-.113 5.117.184 7.202.985 6.935.631-.21 1.467-1.578 1.858-3.04s1.653-3.856 2.804-5.32L132 130.73v4.088c0 2.248.529 5.25 1.176 6.67 1.063 2.331 1.572 2.524 5.25 1.988 3.422-.498 4.84-.103 8.859 2.466 2.631 1.682 5.331 3.04 6 3.018.668-.022 3.384-2.036 6.036-4.476l4.82-4.437-8.463-5.516c-4.654-3.034-10.924-6.459-13.933-7.61l-5.469-2.093-.597-7.121c-.329-3.917-.378-7.342-.109-7.611.269-.268 4.344.069 9.056.75 6.527.944 8.901.962 9.97.074 1.789-1.484 1.824-3.019.054-2.339-1.723.661-15.004-4.569-24.395-9.606l-7.245-3.887 1.539 3.706m31.701-.026c-2.367.39-3.194 3.232-.941 3.232 1.822 0 5.194-2.594 4.092-3.149-.495-.249-1.913-.287-3.151-.083m-45.87 9.732c.261 1.1 1.246 7.85 2.189 15 .942 7.15 2.1 13.428 2.572 13.95.51.564.86.157.862-1 .006-3.636-4.224-26.941-5.164-28.45-.729-1.17-.83-1.06-.459.5m85.683 63.602c-.086 7.605-2.931 11.839-9.409 13.998l-4.799 1.6 3.083 2.594c3.403 2.863 6.076 2.555 11.062-1.274 2.32-1.783 2.488-2.481 2.33-9.72-.213-9.739-2.168-15.946-2.267-7.198M207 204.892c0 1.498-.409 1.991-1.25 1.506-.687-.396-.159.477 1.174 1.941 1.334 1.463 2.535 2.661 2.67 2.661.342 0-1.714-7.406-2.199-7.917-.217-.229-.395.585-.395 1.809" fill="#1976D2" fill-rule="evenodd"/></svg>