<svg xmlns="http://www.w3.org/2000/svg" width="256" height="256"><path fill-opacity=".016" d="M0 128.004v128.004l128.25-.254 128.25-.254.254-127.75L257.008 0H0v128.004m.485.496c0 70.4.119 99.053.265 63.672.146-35.38.146-92.98 0-128C.604 29.153.485 58.1.485 128.5" fill="#1976D2" fill-rule="evenodd"/><path fill-opacity=".103" d="M105.922 1.552C58.454 10.148 19.974 44.006 5.596 89.829c-5.658 18.031-7.244 41.443-4.05 59.79 8.09 46.484 41.058 84.938 85.581 99.822C101.157 254.131 112.802 256 128 256c33.777 0 64.614-12.397 89.364-35.925 7.815-7.429 19.184-22.673 24.39-32.702 5.055-9.736 10.698-26.224 12.278-35.873.631-3.85 1.557-7.781 2.058-8.736 1.16-2.214 1.203-31.063.045-30.347-.476.294-1.148-1.868-1.493-4.804-1.423-12.11-8.595-32.146-15.843-44.259-19.887-33.237-51.787-55.285-89.509-61.863-10.573-1.843-33.025-1.812-43.368.061M87 59.583c-3.025.798-8.425 2.866-12 4.595C66.125 68.471 53.59 81.058 49.285 90 43.175 102.689 43 104.423 43 152.194c0 32.427.304 43.71 1.2 44.606 1.522 1.522 7.487 1.545 11.901.045 7.255-2.466 14.889-9.974 16.446-16.175.371-1.479 1.141-2.977 1.71-3.329.57-.352 14.133-.914 30.14-1.249l29.103-.608 6.759-3.194c7.474-3.531 16.639-11.557 19.975-17.492 1.187-2.113 4.276-5.2 6.864-6.861 5.459-3.503 12.971-11.236 15.312-15.763.893-1.727 3.053-3.879 4.799-4.782 4.592-2.375 13.576-11.17 16.492-16.144 1.736-2.963 2.313-5.055 1.876-6.798-.506-2.015.297-3.657 4.028-8.234 6.086-7.464 7.963-11.379 6.613-13.79-.836-1.495-.283-2.68 2.978-6.381 2.203-2.5 5.145-6.486 6.537-8.858 2.116-3.606 2.349-4.712 1.42-6.75L226.043 58l-66.772.066c-55 .054-67.741.321-72.271 1.517m.798 10.348c-15.536 4.967-28.07 17.496-32.789 32.774-1.866 6.043-2.009 9.271-2.009 45.4 0 23.109.375 38.895.923 38.895 1.582 0 7.084-5.109 8.474-7.869.98-1.946 1.489-11.379 1.953-36.224.683-36.565.878-37.912 6.826-47.181 3.816-5.946 10.17-10.932 17.671-13.865 5.491-2.147 7.114-2.227 56.653-2.786l51-.575 5.555-2.728c3.056-1.501 6.622-3.863 7.925-5.25L212.349 68l-59.425.054c-54.663.049-59.881.2-65.126 1.877m15.202 20c-7.023.425-10.543 1.137-13.5 2.734-5.314 2.869-9.93 7.825-12.421 13.335-1.888 4.174-2.037 6.511-2.057 32.25L75 166H129.731l6.966-3.485c3.831-1.916 7.786-4.391 8.789-5.5C147.31 155 147.305 155 124.266 155c-21.13 0-23.239-.157-25.385-1.895-2.014-1.631-2.201-2.294-1.339-4.75l1.003-2.855 25.74-.674c28.752-.752 31.795-1.327 40.215-7.601l5-3.725-23.832-.5c-22.118-.464-23.935-.64-25.25-2.441-1.866-2.555-1.789-3.915.332-5.828 1.477-1.333 5.734-1.63 27.25-1.905 24.061-.308 25.779-.455 30.445-2.606 5.589-2.577 11.555-6.847 11.555-8.271 0-.576-11.128-.949-28.345-.949-26.19 0-28.471-.139-30-1.829-2.104-2.325-2.106-4.551-.005-6.299 1.269-1.055 7.679-1.487 27.75-1.872l26.1-.5 5.5-2.825c5.567-2.859 10-6.339 10-7.849 0-.906-82.744-.818-98 .105M.402 128c0 8.525.154 12.012.341 7.75.188-4.262.188-11.237 0-15.5-.187-4.263-.341-.775-.341 7.75" fill="#1976D2" fill-rule="evenodd"/><path fill-opacity=".338" d="M108 1.651C90.523 4.326 71.676 11.808 56 22.293 46.364 28.739 28.739 46.364 22.293 56c-29.533 44.153-29.533 99.847 0 144 6.446 9.636 24.071 27.261 33.707 33.707 44.153 29.533 99.847 29.533 144 0 9.636-6.446 27.261-24.071 33.707-33.707 10.405-15.557 18.137-34.97 20.312-51 .634-4.675 1.564-9.281 2.067-10.236 1.115-2.119 1.232-23.079.125-22.395-.433.268-1.35-3.634-2.036-8.672-2.258-16.584-9.913-35.916-20.468-51.697-6.446-9.636-24.071-27.261-33.707-33.707-27.357-18.299-59.783-25.574-92-20.642M93 57.687c-5.416.897-15.775 4.634-21 7.575-7.793 4.387-17.783 14.862-22.161 23.238-7.373 14.105-7.339 13.807-7.339 63.199 0 34.969.272 44.471 1.302 45.5 2.099 2.097 10.259 1.31 15.864-1.53 5.989-3.035 10.332-7.726 12.899-13.933l1.886-4.558 28.524-.393c26.889-.37 28.859-.524 34.349-2.688 8.035-3.168 17.294-10.487 21.957-17.357 2.357-3.473 6.038-7.173 9.271-9.318 5.712-3.792 10.552-8.789 13.732-14.179 1.074-1.82 4.037-4.71 6.585-6.421 10.479-7.04 17.701-16.491 16.878-22.084-.405-2.751.191-3.981 3.959-8.175 5.902-6.569 7.613-10.05 6.874-13.989-.503-2.679-.1-3.649 2.546-6.129C223.368 72.47 228 65.118 228 62.361c0-5.45 1.017-5.373-68.473-5.225-35.215.075-65.152.323-66.527.551m-2.888 11.894c-13.303 3.577-26.433 14.47-32.138 26.662-4.248 9.077-4.908 16.562-4.943 56.064L53 187.113l3.069-1.806c1.688-.994 4.051-3.382 5.25-5.307 2.1-3.369 2.201-4.769 2.706-37.5.501-32.476.627-34.258 2.82-39.747 3.201-8.011 10.696-15.909 18.959-19.979l6.648-3.274L144 79l51.548-.5 6.549-3.225c3.602-1.774 7.373-4.137 8.381-5.25L212.31 68l-58.405.066c-47.698.054-59.393.331-63.793 1.515m3.204 21.745c-5.967 2.2-11.745 7.166-14.816 12.735l-3 5.439-.308 28.321-.307 28.321 27.807-.358c24.33-.314 28.308-.587 31.808-2.188 4.68-2.14 11.448-6.766 11.479-7.846.011-.412-10.297-.75-22.908-.75C98.283 155 97 154.732 97 149.551c0-4.719 1.555-5.015 29.402-5.589 17.576-.362 27.078-.948 29.098-1.796 3.848-1.613 12.496-7.436 12.498-8.416.001-.412-10.316-.75-22.927-.75-19.51 0-23.162-.234-24.5-1.571-1.904-1.905-2.013-4.443-.29-6.798 1.145-1.566 4.04-1.809 27.25-2.291 25.919-.538 25.981-.544 31.969-3.369 3.3-1.557 7.125-3.752 8.5-4.878l2.5-2.049-25.5-.079c-14.025-.044-27.251-.392-29.391-.773-4.8-.854-6.4-3.038-5.048-6.889l.984-2.803 25.977-.683c28.215-.741 30.806-1.195 38.989-6.825 2.469-1.698 4.489-3.291 4.489-3.54 0-.249-23.512-.418-52.25-.376-37.348.054-53.158.411-55.434 1.25M.378 128c0 6.325.163 8.912.361 5.75.198-3.163.198-8.338 0-11.5-.198-3.163-.361-.575-.361 5.75" fill="#1976D2" fill-rule="evenodd"/><path fill-opacity=".134" d="M115.265.972C58.709 7.383 14.59 47.541 2.881 103.266c-3 14.276-3 35.192 0 49.468 9.453 44.987 39.981 80.207 82.885 95.624 26.059 9.363 58.409 9.363 84.468 0 42.78-15.373 73.728-51.007 82.75-95.281 1.109-5.44 2.016-11.931 2.016-14.425 0-2.494.45-4.812 1-5.152.55-.34 1-3.318 1-6.618 0-3.745-.376-5.768-1-5.382-.612.378-1-1.187-1-4.034 0-2.558-.907-9.103-2.016-14.543-10.305-50.571-49.425-89.729-99.75-99.849C141.643.743 125.278-.163 115.265.972M87.788 58.551C71.979 62.384 55.754 75.43 48.674 90 42.117 103.495 42 104.594 42 152.555c0 41.754.064 43.193 1.985 44.931 1.574 1.425 3.008 1.675 6.931 1.21 9.39-1.112 18.015-7.731 22.081-16.946l2.097-4.75h26.771c29.038 0 33.119-.559 42.12-5.766 6.052-3.5 13.64-10.739 16.659-15.89 1.428-2.436 4.292-5.288 6.766-6.738 4.762-2.791 15.082-13.43 16.081-16.579.353-1.111 2.524-3.127 4.825-4.479 5.513-3.239 13.979-11.992 16.671-17.236 1.748-3.404 1.936-4.588 1.006-6.326-1.011-1.888-.605-2.687 3.463-6.812 5.678-5.759 9.104-12.352 7.711-14.84-.769-1.374-.072-2.803 3.312-6.787 6.284-7.399 8.702-12.332 7.326-14.948-.607-1.154-1.6-2.43-2.205-2.834-.605-.404-30.575-.704-66.6-.666-52.201.054-66.66.349-71.212 1.452M123 68.962l-33.5.538-7.5 3.611c-12.337 5.941-20.159 14.243-25.232 26.784-2.193 5.42-2.285 6.935-2.768 45.856-.295 23.713-.128 40.25.405 40.25.497-.001 2.562-1.744 4.588-3.873l3.684-3.873.658-14.377c.362-7.908.659-23.25.661-34.093.004-22.024.656-25.381 6.703-34.508 3.972-5.997 10.655-11.263 17.931-14.131 4.71-1.857 8.429-2.034 55.957-2.677l50.913-.688 5.67-2.491c3.119-1.371 6.685-3.571 7.925-4.891L211.349 68l-27.425.212c-15.083.117-42.499.454-60.924.75M97.306 91.009c-6.068.887-10.9 3.625-15.361 8.707-6.096 6.942-6.302 8.121-6.747 38.61l-.407 27.827 27.354-.709c29.87-.773 33.878-1.48 40.71-7.18l3.313-2.764-22.593.287-22.593.286-2.553-2.553c-2.546-2.546-2.645-5.479-.269-8.02.551-.59 11.673-1.215 27.137-1.525 25.539-.512 26.342-.59 31.703-3.104 3.025-1.419 6.625-3.53 8-4.692l2.5-2.112-22.295-.034-22.296-.033-2.454-2.455c-2.955-2.954-3.011-3.636-.546-6.684 1.9-2.348 2.052-2.364 28.25-2.861l26.341-.5 5.735-2.905c3.155-1.598 6.487-3.735 7.405-4.75 1.619-1.789.82-1.845-26.412-1.845h-28.083l-2.072-2.635c-2.541-3.23-2.549-3.555-.162-6.504 1.9-2.348 2.053-2.364 28.25-2.861 26.235-.498 26.361-.511 31.93-3.246 3.076-1.51 6.408-3.648 7.405-4.75 1.813-2.003 1.788-2.004-47.091-1.879-26.898.068-51.242.466-54.099.884M.32 128c0 3.575.182 5.037.403 3.25.222-1.787.222-4.713 0-6.5-.221-1.787-.403-.325-.403 3.25" fill="#1976D2" fill-rule="evenodd"/></svg>