<svg width="1240" height="1240" viewBox="0 0 1240 1240" fill="none" xmlns="http://www.w3.org/2000/svg">
<path d="M1230 615C1230 954.655 954.655 1230 615 1230C275.345 1230 0 954.655 0 615C0 275.345 275.345 0 615 0C954.655 0 1230 275.345 1230 615Z" fill="#378DFE"/>
<path d="M458.865 276.311C324.392 291.834 220.267 396.657 204.744 531.653C203.698 541.421 203 619.907 203 740.601C203 930.887 203 933.852 206.488 940.654C212.07 951.468 221.139 955.305 238.232 954.084C270.498 951.468 296.311 939.957 319.683 917.457C334.683 902.806 346.368 884.319 352.473 865.482L357.356 850.133L486.423 849.61C626.826 848.738 621.245 849.261 653.86 838.448C704.615 821.704 753.8 780.717 776.125 736.415C781.357 725.951 783.101 723.858 791.299 719.846C826.53 701.881 863.506 665.603 880.599 631.941C886.005 621.477 887.226 620.081 898.214 614.5C931.702 597.407 966.585 562.699 984.375 528.688C992.398 513.34 993.096 506.712 987.166 496.596L983.154 489.445L997.456 475.318C1014.9 458.225 1027.46 441.83 1036.7 424.04C1044.72 408.691 1045.42 402.064 1039.49 391.948L1035.48 384.797L1049.78 370.669C1057.63 362.995 1068.09 351.309 1073.15 344.681C1084.66 329.159 1096 307.531 1096 300.729C1096 291.834 1089.9 281.892 1082.05 277.881C1075.24 274.393 1072.63 274.393 772.985 274.567C606.769 274.741 465.319 275.439 458.865 276.311ZM1013.85 332.996C997.805 349.739 968.154 366.483 941.644 373.983L927.69 377.995L694.848 379.041C464.098 379.913 461.83 380.087 448.924 383.75C412.646 393.866 385.088 409.563 361.542 432.935C338.171 456.481 322.474 484.213 312.358 520.316C308.695 533.049 308.695 537.409 307.648 686.882C306.602 855.889 307.3 846.296 295.963 864.61C287.591 878.214 271.021 892.342 259.161 896.004L255.15 897.4L255.847 713.567C256.371 546.479 256.72 528.688 259.51 516.828C267.01 484.213 279.219 455.434 296.312 429.621C307.474 412.877 341.485 378.867 358.229 367.704C390.495 346.251 430.262 331.6 466.365 327.938C469.679 327.589 595.606 327.066 746.125 327.066L1019.96 326.717L1013.85 332.996ZM961.527 437.644C945.481 454.388 915.83 471.306 889.319 478.631C875.715 482.469 872.75 482.643 758.509 483.515C651.07 484.561 641.128 484.736 636.07 487.701C629.442 491.189 623.338 502.003 623.338 509.852C623.338 518.572 629.442 528.514 637.291 532.525C643.919 536.014 647.233 536.014 779.787 536.014H915.307L909.203 542.293C893.156 559.036 863.506 575.954 836.995 583.28C823.391 587.117 820.426 587.291 706.185 588.163C598.746 589.21 588.804 589.384 583.746 592.349C577.118 595.838 571.014 606.651 571.014 614.5C571.014 623.221 577.118 633.162 584.967 637.174C591.595 640.488 595.083 640.662 701.301 640.662L810.833 640.836L802.112 648.86C783.101 666.301 755.718 681.126 729.556 688.103C715.428 691.765 711.417 691.94 598.92 692.812C468.807 694.033 475.086 693.335 468.109 706.939C461.482 720.021 465.668 734.322 478.225 741.473L485.202 745.311H595.606L706.185 745.485L697.464 753.508C678.453 770.949 651.07 785.775 624.908 792.751C610.606 796.588 607.989 796.588 485.202 797.112L359.973 797.809V673.801C359.973 538.281 360.147 535.665 370.263 511.596C382.995 481.073 411.774 452.644 441.947 440.958C466.54 431.365 456.598 431.714 721.707 431.54L967.631 431.365L961.527 437.644Z" fill="#FFF7FC"/>
</svg>
