<?xml version="1.0" standalone="no"?>
<!DOCTYPE svg PUBLIC "-//W3C//DTD SVG 20010904//EN"
 "http://www.w3.org/TR/2001/REC-SVG-20010904/DTD/svg10.dtd">
<svg version="1.0" xmlns="http://www.w3.org/2000/svg"
 width="512.000000pt" height="512.000000pt" viewBox="0 0 512.000000 512.000000"
 preserveAspectRatio="xMidYMid meet">

<g transform="translate(0.000000,512.000000) scale(0.100000,-0.100000)"
fill="#fff7fc" stroke="none">
<path d="M1467 4499 c-771 -89 -1368 -690 -1457 -1464 -6 -56 -10 -506 -10
-1198 0 -1091 0 -1108 20 -1147 32 -62 84 -84 182 -77 185 15 333 81 467 210
86 84 153 190 188 298 l28 88 740 3 c805 5 773 2 960 64 291 96 573 331 701
585 30 60 40 72 87 95 202 103 414 311 512 504 31 60 38 68 101 100 192 98
392 297 494 492 46 88 50 126 16 184 l-23 41 82 81 c100 98 172 192 225 294
46 88 50 126 16 184 l-23 41 82 81 c45 44 105 111 134 149 66 89 131 213 131
252 0 51 -35 108 -80 131 -39 20 -54 20 -1772 19 -953 -1 -1764 -5 -1801 -10z
m3182 -325 c-92 -96 -262 -192 -414 -235 l-80 -23 -1335 -6 c-1323 -5 -1336
-6 -1410 -27 -208 -58 -366 -148 -501 -282 -134 -135 -224 -294 -282 -501 -21
-73 -21 -98 -27 -955 -6 -969 -2 -914 -67 -1019 -48 -78 -143 -159 -211 -180
l-23 -8 4 1054 c3 958 5 1060 21 1128 43 187 113 352 211 500 64 96 259 291
355 355 185 123 413 207 620 228 19 2 741 5 1604 5 l1570 2 -35 -36z m-300
-600 c-92 -96 -262 -193 -414 -235 -78 -22 -95 -23 -750 -28 -616 -6 -673 -7
-702 -24 -38 -20 -73 -82 -73 -127 0 -50 35 -107 80 -130 38 -20 57 -20 817
-20 l777 0 -35 -36 c-92 -96 -262 -193 -414 -235 -78 -22 -95 -23 -750 -28
-616 -6 -673 -7 -702 -24 -38 -20 -73 -82 -73 -127 0 -50 35 -107 80 -130 38
-19 58 -20 667 -20 l628 -1 -50 -46 c-109 -100 -266 -185 -416 -225 -81 -21
-104 -22 -749 -27 -746 -7 -710 -3 -750 -81 -38 -75 -14 -157 58 -198 l40 -22
633 0 634 -1 -50 -46 c-109 -100 -266 -185 -416 -225 -82 -22 -97 -22 -801
-25 l-718 -4 0 711 c0 777 1 792 59 930 73 175 238 338 411 405 141 55 84 53
1604 54 l1410 1 -35 -36z"/>
</g>
</svg>
